<svg id="Layer_1" data-name="Layer 1" xmlns="http://www.w3.org/2000/svg" viewBox="0 0 1685.73 444.56"><defs><style>.cls-1{fill:#108acc;}</style></defs><title>ACoS</title><path class="cls-1" d="M604.9,49.59H576.08L432.32,395.41H467.9l42.83-108.12H669.14l42.94,108.12h35.59ZM521.64,259.76,589.83,87.62,658.2,259.76Z"/><path class="cls-1" d="M762.11,222.49c0-97.38,72.49-176.32,161.91-176.32,60,0,101,29.5,130.32,74.69l-27.64,19.38C1003.48,102.71,976.78,78.13,925,78.13c-71.05,0-128.64,64.63-128.64,144.36S853.92,366.86,925,366.86c45.07,0,85.72-26,108.7-65.37l27.87,15.83c-28.75,49-80.15,81.5-137.52,81.5C834.6,398.82,762.11,319.88,762.11,222.49Z"/><path class="cls-1" d="M1220.24,136.26c-68.93,0-124.8,54.57-124.8,131.28,0,79.38,55.87,131.28,124.8,131.28S1345,346.92,1345,267.54C1345,190.83,1289.16,136.26,1220.24,136.26Zm0,234.8c-50.74,0-91.87-40.28-91.87-101.88s41.13-101.88,91.87-101.88,91.86,40.28,91.86,101.88S1271,371.06,1220.24,371.06Z"/><path class="cls-1" d="M1604.78,308.94c0-103.06-215.29-34.89-215.29-167.77,0-69.33,70-95,119.71-95,79,0,115.11,40,115.11,40L1607,115S1578,76.88,1516.9,76.88,1426,98.58,1426,144.17c0,91.18,215.94,30.71,215.94,163.77,0,46.58-38.17,90.88-124.29,90.88-88.79,0-140.12-50.36-140.12-50.36l16.94-28.7s53.22,48,115.18,48S1604.78,349.41,1604.78,308.94Z"/><path class="cls-1" d="M0,0V444.56H1685.73V0ZM126,370a9.92,9.92,0,0,1-9.92,9.92H56.35A9.92,9.92,0,0,1,46.43,370V76.67a9.92,9.92,0,0,1,9.92-9.92H116A9.92,9.92,0,0,1,126,76.67Zm114.59,0a9.92,9.92,0,0,1-9.92,9.92H170.94A9.92,9.92,0,0,1,161,370V163.67a9.92,9.92,0,0,1,9.92-9.92h59.69a9.92,9.92,0,0,1,9.92,9.92Zm114,0a9.92,9.92,0,0,1-9.92,9.92H284.93A9.92,9.92,0,0,1,275,370V246.67a9.92,9.92,0,0,1,9.92-9.92h59.69a9.92,9.92,0,0,1,9.92,9.92Zm1315.19,58.6H391V16H1669.73Z"/></svg>