<?xml version="1.0" encoding="utf-8"?>
<!-- Generator: Adobe Illustrator 23.0.4, SVG Export Plug-In . SVG Version: 6.00 Build 0)  -->
<svg version="1.1" id="Layer_1" xmlns="http://www.w3.org/2000/svg" xmlns:xlink="http://www.w3.org/1999/xlink" x="0px" y="0px"
	 viewBox="0 0 100 100" style="enable-background:new 0 0 100 100;" xml:space="preserve">
<style type="text/css">
	.st0{fill:#27303D;}
</style>
<path class="st0" d="M100.26,50.26c0,25.27-18.65,46.19-42.93,49.74V63.29h12.73l1.71-13.03H57.33v-9.61c0-5.01,2.18-7.89,6.31-7.89
	c2.82,0,7.86-0.03,7.86-0.03V20.27c0,0-8.11,0-12.83,0c-8.64,0-16.98,5.66-16.98,20.1v9.89H29.4v13.03h12.3v36.56
	C17.88,95.89-0.26,75.2-0.26,50.26C-0.26,22.5,22.24,0,50,0S100.26,22.5,100.26,50.26z"/>
</svg>
