<?xml version="1.0" encoding="utf-8"?>
<!-- Generator: Adobe Illustrator 23.0.4, SVG Export Plug-In . SVG Version: 6.00 Build 0)  -->
<svg version="1.1" id="Layer_1" xmlns="http://www.w3.org/2000/svg" xmlns:xlink="http://www.w3.org/1999/xlink" x="0px" y="0px"
	 viewBox="0 0 158.53 100" style="enable-background:new 0 0 158.53 100;" xml:space="preserve">
<style type="text/css">
	.st0{fill:#27303D;}
</style>
<g>
	<path class="st0" d="M0.66,5.19C0.23,6.2,0,7.31,0,8.48v83.05c0,0.96,0.16,1.88,0.46,2.74l51.23-43.19L0.66,5.19z"/>
	<path class="st0" d="M79.26,64.33c3.26,0,6.38-1.2,8.8-3.37l66.41-59.72c-1.29-0.79-2.8-1.24-4.42-1.24H79.26H8.48
		C6.86,0,5.34,0.45,4.05,1.24l66.41,59.72C72.88,63.14,76.01,64.33,79.26,64.33z"/>
	<path class="st0" d="M157.87,5.19l-51.03,45.89l51.23,43.19c0.3-0.86,0.46-1.78,0.46-2.74V8.48C158.53,7.31,158.29,6.2,157.87,5.19
		z"/>
	<path class="st0" d="M91.55,64.83c-3.38,3.04-7.74,4.71-12.28,4.71s-8.9-1.67-12.28-4.71L55.6,54.59L3.58,98.44
		c1.38,0.99,3.08,1.56,4.9,1.56h70.79h70.79c1.82,0,3.52-0.58,4.9-1.56l-52.02-43.85L91.55,64.83z"/>
</g>
</svg>
