<?xml version="1.0" ?><!DOCTYPE svg  PUBLIC '-//W3C//DTD SVG 1.1//EN'  'http://www.w3.org/Graphics/SVG/1.1/DTD/svg11.dtd'><svg enable-background="new 0 0 140 140" id="Layer_17" version="1.1" viewBox="0 0 140 140" xml:space="preserve" xmlns="http://www.w3.org/2000/svg" xmlns:xlink="http://www.w3.org/1999/xlink"><g><defs><filter filterUnits="userSpaceOnUse" height="97.071106" id="Adobe_OpacityMaskFilter" width="97.0710449" x="42.9289551" y="42.928894"><feColorMatrix type="matrix" values="1 0 0 0 0  0 1 0 0 0  0 0 1 0 0  0 0 0 1 0"/></filter></defs><mask height="97.071106" id="SVGID_1_" maskUnits="userSpaceOnUse" width="97.0710449" x="42.9289551" y="42.928894"><g filter="url(#Adobe_OpacityMaskFilter)"><radialGradient cx="70" cy="70" gradientTransform="matrix(0.7071068 0.7071068 -0.2721382 0.2721382 39.5522003 1.4528493)" gradientUnits="userSpaceOnUse" id="SVGID_2_" r="106.5634918"><stop offset="0.3" style="stop-color:#FFFFFF"/><stop offset="0.85" style="stop-color:#FFFFFF;stop-opacity:0"/></radialGradient><rect fill="url(#SVGID_2_)" height="140" width="140"/></g></mask><linearGradient gradientUnits="userSpaceOnUse" id="SVGID_3_" x1="69.9999847" x2="140.0000153" y1="69.9999542" y2="139.9999847"><stop offset="0" style="stop-color:#000000;stop-opacity:0.4"/><stop offset="0.8" style="stop-color:#000000;stop-opacity:0"/></linearGradient><polygon fill="url(#SVGID_3_)" mask="url(#SVGID_1_)" points="140,85.8580933    97.0710449,42.928894 42.9289551,97.0710449 85.8580933,140 140,140  "/><defs><filter filterUnits="userSpaceOnUse" height="97.071106" id="Adobe_OpacityMaskFilter_1_" width="97.0710449" x="42.9289551" y="42.928894"><feColorMatrix type="matrix" values="1 0 0 0 0  0 1 0 0 0  0 0 1 0 0  0 0 0 1 0"/></filter></defs><mask height="97.071106" id="SVGID_4_" maskUnits="userSpaceOnUse" width="97.0710449" x="42.9289551" y="42.928894"><g filter="url(#Adobe_OpacityMaskFilter_1_)"><radialGradient cx="70" cy="70" gradientTransform="matrix(0.7071068 0.7071068 -0.3889087 0.3889087 47.7261353 -6.7210855)" gradientUnits="userSpaceOnUse" id="SVGID_5_" r="79.5565872"><stop offset="0.3" style="stop-color:#FFFFFF"/><stop offset="0.85" style="stop-color:#FFFFFF;stop-opacity:0"/></radialGradient><rect fill="url(#SVGID_5_)" height="140" width="140"/></g></mask><linearGradient gradientUnits="userSpaceOnUse" id="SVGID_6_" x1="69.9999847" x2="140.0000153" y1="69.9999542" y2="139.9999847"><stop offset="0" style="stop-color:#4285F4;stop-opacity:0.6"/><stop offset="0.5" style="stop-color:#4285F4;stop-opacity:0"/></linearGradient><polygon fill="url(#SVGID_6_)" mask="url(#SVGID_4_)" points="140,85.8580933    97.0710449,42.928894 42.9289551,97.0710449 85.8580933,140 140,140  "/><g><defs><path d="M90,100H50c-5.5228462,0-10-4.47715-10-10V50c0-5.5228462,4.4771538-10,10-10h40     c5.52285,0,10,4.4771538,10,10v40C100,95.52285,95.52285,100,90,100z" id="SVGID_7_"/></defs><clipPath id="SVGID_8_"><use overflow="visible" xlink:href="#SVGID_7_"/></clipPath><rect clip-path="url(#SVGID_8_)" fill="#FBBC05" height="70" width="70"/><rect clip-path="url(#SVGID_8_)" fill="#EA4335" height="70" width="70" x="70"/><rect clip-path="url(#SVGID_8_)" fill="#34A853" height="70" width="70" y="70"/><rect clip-path="url(#SVGID_8_)" fill="#4285F4" height="70" width="70" x="70" y="70"/></g><g><defs><path d="M90,41c4.9626236,0,9,4.0373802,9,9v40c0,4.9626236-4.0373764,9-9,9H50c-4.9626198,0-9-4.0373764-9-9V50     c0-4.9626198,4.0373802-9,9-9H90 M90,40H50c-5.52285,0-10,4.47715-10,10v40c0,5.52285,4.47715,10,10,10h40     c5.52285,0,10-4.47715,10-10V50C100,44.47715,95.52285,40,90,40L90,40z" id="SVGID_9_"/></defs><clipPath id="SVGID_10_"><use overflow="visible" xlink:href="#SVGID_9_"/></clipPath><linearGradient gradientUnits="userSpaceOnUse" id="SVGID_11_" x1="20" x2="120" y1="20" y2="120"><stop offset="0" style="stop-color:#FFFFFF;stop-opacity:0.8"/><stop offset="0.6" style="stop-color:#FFFFFF;stop-opacity:0"/></linearGradient><rect clip-path="url(#SVGID_10_)" fill="url(#SVGID_11_)" height="100" width="100" x="20" y="20"/></g><g><defs><path d="M90,41c4.9626236,0,9,4.0373802,9,9v40c0,4.9626236-4.0373764,9-9,9H50c-4.9626198,0-9-4.0373764-9-9V50     c0-4.9626198,4.0373802-9,9-9H90 M90,40H50c-5.52285,0-10,4.47715-10,10v40c0,5.52285,4.47715,10,10,10h40     c5.52285,0,10-4.47715,10-10V50C100,44.47715,95.52285,40,90,40L90,40z" id="SVGID_12_"/></defs><clipPath id="SVGID_13_"><use overflow="visible" xlink:href="#SVGID_12_"/></clipPath><linearGradient gradientUnits="userSpaceOnUse" id="SVGID_14_" x1="20" x2="120" y1="20" y2="120"><stop offset="0.4" style="stop-color:#000000;stop-opacity:0"/><stop offset="1" style="stop-color:#000000;stop-opacity:0.2"/></linearGradient><rect clip-path="url(#SVGID_13_)" fill="url(#SVGID_14_)" height="100" width="100" x="20" y="20"/></g><g><defs><path d="M50,99c-4.9624023,0-9-4.0375977-9-9V50c0-4.9624023,4.0375977-9,9-9h40c4.9624023,0,9,4.0375977,9,9v40     c0,4.9624023-4.0375977,9-9,9H50z" id="SVGID_15_"/></defs><clipPath id="SVGID_16_"><use overflow="visible" xlink:href="#SVGID_15_"/></clipPath><radialGradient cx="45" cy="45" gradientUnits="userSpaceOnUse" id="SVGID_17_" r="45"><stop offset="0" style="stop-color:#FFFFFF;stop-opacity:0.2"/><stop offset="1" style="stop-color:#FFFFFF;stop-opacity:0"/></radialGradient><circle clip-path="url(#SVGID_16_)" cx="45" cy="45" fill="url(#SVGID_17_)" r="45"/></g><g><defs><path d="M90,99.1499023H50c-5.0454102,0-9.1499023-4.1044922-9.1499023-9.1499023V50     c0-5.0454102,4.1044922-9.1499023,9.1499023-9.1499023h40c5.0454102,0,9.1499023,4.1044922,9.1499023,9.1499023v40     C99.1499023,95.0454102,95.0454102,99.1499023,90,99.1499023z M50,41.1499023     c-4.8798828,0-8.8500977,3.9702148-8.8500977,8.8500977v40c0,4.8798828,3.9702148,8.8500977,8.8500977,8.8500977h40     c4.8798828,0,8.8500977-3.9702148,8.8500977-8.8500977V50c0-4.8798828-3.9702148-8.8500977-8.8500977-8.8500977H50z" id="SVGID_18_"/></defs><clipPath id="SVGID_19_"><use overflow="visible" xlink:href="#SVGID_18_"/></clipPath><linearGradient gradientUnits="userSpaceOnUse" id="SVGID_20_" x1="20" x2="120" y1="20" y2="120"><stop offset="0.2" style="stop-color:#FFFFFF;stop-opacity:0.8"/><stop offset="0.7" style="stop-color:#FFFFFF;stop-opacity:0"/></linearGradient><rect clip-path="url(#SVGID_19_)" fill="url(#SVGID_20_)" height="100" width="100" x="20" y="20"/></g><path d="M84.1421509,55.8578491L69.0624924,56.1875L58.125,61.75   l-2.2671509,22.3921509L71.7156982,100H90c5.5228271,0,10-4.4771729,10-10V71.7156982L84.1421509,55.8578491z" opacity="0.12"/><path d="M70,66v8h11.302536C79.6535187,78.6576157,75.2226563,82,70,82c-6.6274414,0-12-5.3726044-12-12   c0-6.6274414,5.3725586-12,12-12c3.3148956,0,6.3076172,1.3496094,8.4756851,3.5243149l5.6664505-5.6664543   C80.52285,52.238575,75.52285,50,70,50c-11.0457039,0-20,8.9542961-20,20s8.9542961,20,20,20s20-8.9542999,20-20   c0-1.3699722-0.1384735-2.7074738-0.4008789-4H70z" fill="#FFFFFF"/><path d="M55.8578606,84.1421356C59.47715,87.7614288,64.47715,90,70,90   s10.52285-2.2385712,14.1421356-5.8578644C87.7614288,80.52285,90,75.52285,90,70   c0-0.6849823-0.0346222-1.3618546-0.1020355-2.0290375C89.8305435,67.303772,89.7303238,66.6462631,89.5991211,66   c0,0,1.8521347,13.5475235-11.2241211,20.7083359C67.875,92.4583359,55.8578606,84.1421356,55.8578606,84.1421356z" fill="#4285F4" opacity="0.4"/></g></svg>