<?xml version="1.0" encoding="utf-8"?>
<!-- Generator: Adobe Illustrator 23.0.4, SVG Export Plug-In . SVG Version: 6.00 Build 0)  -->
<svg version="1.1" id="Layer_1" xmlns="http://www.w3.org/2000/svg" xmlns:xlink="http://www.w3.org/1999/xlink" x="0px" y="0px"
	 viewBox="0 0 1685.73 444.56" style="enable-background:new 0 0 1685.73 444.56;" xml:space="preserve">
<style type="text/css">
	.st0{fill:#252F3E;}
</style>
<g>
	<path class="st0" d="M604.9,49.59h-28.82L432.32,395.41h35.58l42.83-108.12h158.41l42.94,108.12h35.59L604.9,49.59z M521.64,259.76
		l68.19-172.14l68.37,172.14H521.64z"/>
	<path class="st0" d="M762.11,222.49c0-97.38,72.49-176.32,161.91-176.32c60,0,101.01,29.5,130.32,74.69l-27.64,19.38
		c-23.22-37.53-49.92-62.11-101.73-62.11c-71.05,0-128.64,64.63-128.64,144.36c0,79.74,57.59,144.37,128.64,144.37
		c45.07,0,85.72-26,108.7-65.37l27.87,15.83c-28.75,49.01-80.15,81.5-137.52,81.5C834.6,398.82,762.11,319.88,762.11,222.49z"/>
	<path class="st0" d="M1220.24,136.26c-68.93,0-124.8,54.57-124.8,131.28c0,79.38,55.87,131.28,124.8,131.28
		c68.92,0,124.79-51.9,124.79-131.28C1345.03,190.83,1289.16,136.26,1220.24,136.26z M1220.24,371.06
		c-50.74,0-91.87-40.28-91.87-101.88c0-61.6,41.13-101.88,91.87-101.88c50.73,0,91.86,40.28,91.86,101.88
		C1312.1,330.78,1270.97,371.06,1220.24,371.06z"/>
	<path class="st0" d="M1604.78,308.94c0-103.06-215.29-34.89-215.29-167.77c0-69.33,70-95.01,119.71-95.01
		c79.04,0,115.11,39.95,115.11,39.95l-17.29,28.88c0,0-29.06-38.11-90.12-38.11c-61.06,0-90.94,21.7-90.94,67.29
		c0,91.18,215.94,30.71,215.94,163.77c0,46.58-38.17,90.88-124.29,90.88c-88.79,0-140.12-50.36-140.12-50.36l16.94-28.7
		c0,0,53.22,48,115.18,48S1604.78,349.41,1604.78,308.94z"/>
	<path class="st0" d="M0,0v444.56h1685.73V0H0z M125.96,369.96c0,5.48-4.44,9.92-9.92,9.92H56.35c-5.47,0-9.92-4.44-9.92-9.92V76.67
		c0-5.48,4.45-9.92,9.92-9.92h59.69c5.48,0,9.92,4.44,9.92,9.92V369.96z M240.55,369.96c0,5.48-4.44,9.92-9.92,9.92h-59.69
		c-5.48,0-9.92-4.44-9.92-9.92V163.67c0-5.48,4.44-9.92,9.92-9.92h59.69c5.48,0,9.92,4.44,9.92,9.92V369.96z M354.54,369.96
		c0,5.48-4.44,9.92-9.92,9.92h-59.69c-5.48,0-9.92-4.44-9.92-9.92V246.67c0-5.48,4.44-9.92,9.92-9.92h59.69
		c5.48,0,9.92,4.44,9.92,9.92V369.96z M1669.73,428.56H391V16h1278.73V428.56z"/>
</g>
</svg>
