<?xml version="1.0" encoding="utf-8"?>
<!-- Generator: Adobe Illustrator 23.0.4, SVG Export Plug-In . SVG Version: 6.00 Build 0)  -->
<svg version="1.1" id="Layer_1" xmlns="http://www.w3.org/2000/svg" xmlns:xlink="http://www.w3.org/1999/xlink" x="0px" y="0px"
	 viewBox="0 0 320.25 326.14" style="enable-background:new 0 0 320.25 326.14;" xml:space="preserve">
<style type="text/css">
	.st0{fill:#252F3E;}
</style>
<g>
	<path class="st0" d="M85.6,309.72c0,5.48-4.44,9.92-9.92,9.92H15.99c-5.47,0-9.92-4.44-9.92-9.92V16.43c0-5.48,4.45-9.92,9.92-9.92
		h59.69c5.48,0,9.92,4.44,9.92,9.92V309.72z"/>
	<path class="st0" d="M200.19,309.72c0,5.48-4.44,9.92-9.92,9.92h-59.69c-5.48,0-9.92-4.44-9.92-9.92V103.43
		c0-5.48,4.44-9.92,9.92-9.92h59.69c5.48,0,9.92,4.44,9.92,9.92V309.72z"/>
	<path class="st0" d="M314.18,309.72c0,5.48-4.44,9.92-9.92,9.92h-59.69c-5.48,0-9.92-4.44-9.92-9.92V186.43
		c0-5.48,4.44-9.92,9.92-9.92h59.69c5.48,0,9.92,4.44,9.92,9.92V309.72z"/>
</g>
</svg>
