<?xml version="1.0" encoding="utf-8"?>
<!-- Generator: Adobe Illustrator 23.0.4, SVG Export Plug-In . SVG Version: 6.00 Build 0)  -->
<svg version="1.1" id="Layer_1" xmlns="http://www.w3.org/2000/svg" xmlns:xlink="http://www.w3.org/1999/xlink" x="0px" y="0px"
	 viewBox="0 0 87.12 100" style="enable-background:new 0 0 87.12 100;" xml:space="preserve">
<style type="text/css">
	.st0{fill:#27303D;}
</style>
<path class="st0" d="M68.52,62.8c-4.25,0-8.17,1.43-11.3,3.83L36.76,54c0.28-1.29,0.44-2.63,0.44-4s-0.15-2.71-0.44-4l20.45-12.63
	c3.13,2.4,7.05,3.83,11.3,3.83c10.27,0,18.6-8.33,18.6-18.6C87.12,8.33,78.79,0,68.52,0s-18.6,8.33-18.6,18.6
	c0,1.31,0.14,2.59,0.39,3.82l-20.56,12.7c-3.11-2.33-6.97-3.72-11.16-3.72C8.33,31.4,0,39.73,0,50s8.33,18.6,18.6,18.6
	c4.19,0,8.05-1.38,11.16-3.72l20.56,12.7c-0.26,1.23-0.39,2.51-0.39,3.82c0,10.27,8.33,18.6,18.6,18.6s18.6-8.33,18.6-18.6
	S78.79,62.8,68.52,62.8z"/>
</svg>
